<svg xmlns="http://www.w3.org/2000/svg" xmlns:xlink="http://www.w3.org/1999/xlink" width="33" height="47" viewBox="0 0 33 47"><defs><path id="1s31a" d="M976 2502.16V2541h-31v-38.84h7.15v-2.58h4.48V2497h7.74v2.58h4.4v2.58zm-21.27 2.57h11.45v-2.57h-4.39v-2.58h-2.58v2.58h-4.48zm18.69 0h-4.65v2.58h-16.62v-2.58h-4.57v33.7h25.84zm-8.03 23.77l-6.05 6.07-3.72-3.68 1.81-1.83 1.9 1.87 4.23-4.25zm-13.5-17.32h17.22v2.58H951.9zm0 5.16h17.22v2.57H951.9zm0 5.15h8.61v2.58h-8.61z"/></defs><g><g transform="translate(-944 -2496)"><use fill="#f12e1d" xlink:href="#1s31a"/></g></g></svg>