<svg xmlns="http://www.w3.org/2000/svg" xmlns:xlink="http://www.w3.org/1999/xlink" width="48" height="46" viewBox="0 0 48 46"><defs><path id="j6n2a" d="M1383 2533.36v1.01l-.62.39a41.41 41.41 0 0 1-43.76 0l-.62-.39v-1l2.88-10.45 11.69-3.32a10.03 10.03 0 0 1-2.18-6.24v-5.27a10.11 10.11 0 0 1 20.22 0v5.27c0 2.35-.82 4.53-2.18 6.24l11.69 3.32zm-29.87-26.46c5.31-.36 9.67-2.74 10.35-5.65a7.48 7.48 0 0 0-10.36 5.65zm-.1 6.46a7.47 7.47 0 0 0 14.94 0s0-5.61-.02-5.78a5.37 5.37 0 0 1-2.9-2.14 7.2 7.2 0 0 1-.45-.74c-.73.9-1.7 1.7-2.9 2.41a19.3 19.3 0 0 1-8.67 2.44zm13.15 8.34c-.54.37-1.12.69-1.72.94v4.64l.29 1.65 3.52-6.64zm-7 1.75v2.63h2.64v-2.63zm-6.45-1.16l3.52 6.64.3-1.65v-4.64c-.61-.25-1.19-.57-1.73-.94zm5.53 16.05l-8.12-15.3-7.11 2.01-2.2 7.97a38.76 38.76 0 0 0 17.43 5.32zm4.48-5.62l-.7-4h-3.07l-.71 4 2.24 4.23zm17.43.3l-2.2-7.97-7.11-2.02-8.12 15.31c6.03-.35 12-2.12 17.43-5.32z"/></defs><g><g transform="translate(-1336 -2497)"><use fill="#f12e1d" xlink:href="#j6n2a"/></g></g></svg>