<svg xmlns="http://www.w3.org/2000/svg" xmlns:xlink="http://www.w3.org/1999/xlink" width="42" height="48" viewBox="0 0 42 48"><defs><path id="69s7a" d="M579 2514.83l-2.76 5.2-.87 5.81-4.79 2.34v11.94l-4.6-1.97v3.85l-5.98-2.35-5.98 2.35v-3.85l-4.6 1.97v-11.94l-4.8-2.34-.86-5.81-2.76-5.2 2.76-5.2.87-5.82 5.34-2.6 4.16-4.21 5.87 1 5.87-1 4.16 4.2 5.34 2.61.87 5.81zm-24.98 17.72l-1.88-1.91v5.4l1.88-.81zm9.24-.34l-3.26-.55-3.26.55v5.84l3.26-1.29 3.26 1.29zm4.6-1.57l-1.88 1.9v2.69l1.88.8zm8.07-15.81l-2.32-4.37-.72-4.87-4.48-2.18-3.49-3.53-4.92.83-4.92-.83-3.5 3.53-4.47 2.18-.73 4.87-2.31 4.37 2.31 4.36.73 4.87 4.48 2.19 3.49 3.52 4.75-.8.17-.03.16.03 4.76.8 3.5-3.52 4.47-2.19.72-4.87zm-3.87 0c0 6.55-5.41 11.89-12.06 11.89a11.99 11.99 0 0 1-12.06-11.9c0-6.55 5.41-11.88 12.06-11.88s12.06 5.33 12.06 11.89zm-2.72 0a9.29 9.29 0 0 0-9.34-9.22 9.29 9.29 0 0 0-9.34 9.22 9.29 9.29 0 0 0 9.34 9.2 9.29 9.29 0 0 0 9.34-9.2z"/></defs><g><g transform="translate(-539 -2496)"><use fill="#f12e1d" xlink:href="#69s7a"/></g></g></svg>