<svg xmlns="http://www.w3.org/2000/svg" xmlns:xlink="http://www.w3.org/1999/xlink" width="47" height="43" viewBox="0 0 47 43"><defs><path id="hh4pa" d="M1364 763.43V793h-44v-29.57h10.83v-2.6h-2.58V753h24.92v5.22h2.58v5.21zm-33.17-5.21h19.76v-2.61h-19.76zm2.58 2.6v2.61h19.76v-2.6zm-10.83 9.42a5.64 5.64 0 0 0 4.14-4.2h-4.14zm4.14 20.15a5.64 5.64 0 0 0-4.14-4.2v4.2zm34.7-4.2a5.64 5.64 0 0 0-4.14 4.2h4.14zm0-13.3a8.23 8.23 0 0 1-6.77-6.85h-25.3a8.23 8.23 0 0 1-6.77 6.86v10.64a8.23 8.23 0 0 1 6.77 6.85h25.3a8.23 8.23 0 0 1 6.77-6.85zm0-6.85h-4.14a5.64 5.64 0 0 0 4.14 4.2zm-29.73 12.18c0 .96-.77 1.74-1.72 1.74s-1.72-.78-1.72-1.74.77-1.74 1.72-1.74 1.72.78 1.72 1.74zm24.06 0c0 .96-.77 1.74-1.72 1.74s-1.72-.78-1.72-1.74.77-1.74 1.72-1.74 1.72.78 1.72 1.74zm-9.88 2.6a3.92 3.92 0 0 1-2.58 3.7v1.52h-2.58v-1.4l-1.83-.17.22-2.6 2.83.25h.24a1.3 1.3 0 0 0 1.12-1.3c0-.71-.58-1.3-1.29-1.3a3.9 3.9 0 0 1-3.87-3.91 3.9 3.9 0 0 1 2.58-3.67v-1.55h2.58v1.48l1.9.27-.36 2.59-2.64-.38c-.47-.07-.94.1-1.21.46-.18.23-.27.5-.27.8 0 .72.58 1.3 1.29 1.3a3.9 3.9 0 0 1 3.87 3.92z"/></defs><g><g transform="translate(-1319 -752)"><use fill="#f12e1d" xlink:href="#hh4pa"/></g></g></svg>