<svg xmlns="http://www.w3.org/2000/svg" xmlns:xlink="http://www.w3.org/1999/xlink" width="24" height="24" viewBox="0 0 24 24"><defs><path id="nv4ea" d="M424.5 1524a10.49 10.49 0 1 1 0-21 10.49 10.49 0 1 1 0 21zm0-19.26a8.77 8.77 0 0 0-8.76 8.76 8.77 8.77 0 0 0 8.76 8.76 8.77 8.77 0 0 0 0-17.51zm-2.06 12.33l-2.18-3.26a.86.86 0 0 1 .22-1.2.86.86 0 0 1 1.2.22l1.61 2.37 4.1-4.1a.9.9 0 0 1 1.27 0c.35.35.35.88 0 1.24l-4.88 4.82c-.14.18-.82.55-1.34-.09z"/></defs><g><g transform="translate(-412 -1502)"><use fill="#08c81a" xlink:href="#nv4ea"/></g></g></svg>