<svg xmlns="http://www.w3.org/2000/svg" xmlns:xlink="http://www.w3.org/1999/xlink" width="23" height="21" viewBox="0 0 23 21"><defs><path id="o4nra" d="M821 1030.08a5.5 5.5 0 0 1-1.34 3.56 9.04 9.04 0 0 1-3.64 2.58c-1.53.63-3.2.95-5.02.95-.52 0-1.06-.03-1.62-.1a12.23 12.23 0 0 1-6.4 2.93h-.06a.45.45 0 0 1-.3-.12.56.56 0 0 1-.18-.3v-.01c-.02-.03-.02-.07 0-.13l.02-.11c0-.02 0-.05.05-.1l.06-.1.08-.1a39.17 39.17 0 0 1 .82-.9 5.8 5.8 0 0 0 1.3-2.5 8.17 8.17 0 0 1-2.76-2.44 5.34 5.34 0 0 1 .33-6.67 9.04 9.04 0 0 1 3.64-2.57c1.53-.64 3.2-.95 5.02-.95 1.82 0 3.49.31 5.02.95a9.05 9.05 0 0 1 3.64 2.57 5.5 5.5 0 0 1 1.34 3.56zm-1.43 0c0-1-.39-1.95-1.17-2.82a8.02 8.02 0 0 0-3.14-2.07 11.66 11.66 0 0 0-4.26-.77c-1.52 0-2.94.25-4.26.77a8.02 8.02 0 0 0-3.15 2.07 4.17 4.17 0 0 0-1.16 2.82c0 .83.26 1.62.8 2.37.53.75 1.28 1.4 2.25 1.94l.97.55-.3 1.07a7.9 7.9 0 0 1-.79 1.9c1.13-.47 2.16-1.1 3.07-1.9l.48-.41.64.06a11.66 11.66 0 0 0 5.7-.68 8.02 8.02 0 0 0 3.16-2.07 4.17 4.17 0 0 0 1.16-2.83z"/></defs><g><g transform="translate(-799 -1021)"><use fill="#f12e1d" xlink:href="#o4nra"/></g></g></svg>