<svg xmlns="http://www.w3.org/2000/svg" xmlns:xlink="http://www.w3.org/1999/xlink" width="22" height="13" viewBox="0 0 22 13"><defs><path id="642wa" d="M993.83 487.07c.19.25.19.61 0 .87-2.3 3.13-5.41 5.06-8.84 5.06-3.44 0-6.55-1.93-8.85-5.07a.75.75 0 0 1 0-.87c2.3-3.13 5.41-5.06 8.85-5.06 3.43 0 6.54 1.93 8.84 5.07zm-5.07.68a3.83 3.83 0 0 0-4.02-4.12 3.84 3.84 0 0 0-3.53 3.62 3.83 3.83 0 0 0 4.02 4.12 3.85 3.85 0 0 0 3.53-3.62zm-3.64 1.83a2.06 2.06 0 0 1-2.16-2.22 2.07 2.07 0 0 1 1.9-1.95 2.06 2.06 0 0 1 2.16 2.22 2.07 2.07 0 0 1-1.9 1.95z"/></defs><g><g transform="translate(-974 -481)"><use fill="#aeb1bd" xlink:href="#642wa"/></g></g></svg>