<svg xmlns="http://www.w3.org/2000/svg" xmlns:xlink="http://www.w3.org/1999/xlink" width="22" height="21" viewBox="0 0 22 21"><defs><path id="2vgga" d="M422.85 1354.77v6.32c0 .42-.34.76-.76.76h-6.32a.77.77 0 0 1-.77-.76v-6.32c0-.42.35-.77.77-.77h6.32c.42 0 .76.35.76.77zm-1.53 5.59v-4.87h-4.83v4.87zm1.53 4.55v6.36c0 .38-.34.73-.76.73h-6.32a.77.77 0 0 1-.77-.77v-6.32c0-.42.35-.76.77-.76h6.32c.42 0 .76.34.76.76zm-1.53 5.6v-4.87h-4.83v4.87zm2.57-12.6c0-.42.34-.77.76-.77h7.58c.42 0 .77.35.77.77 0 .42-.35.76-.77.76h-7.58a.77.77 0 0 1-.76-.76zm9.11 10.14c0 .42-.35.77-.77.77h-7.58a.77.77 0 0 1-.76-.77c0-.42.34-.76.76-.76h7.58c.42 0 .77.34.77.76z"/></defs><g><g transform="translate(-413 -1353)"><use fill="#f12e1d" xlink:href="#2vgga"/></g></g></svg>