<svg xmlns="http://www.w3.org/2000/svg" xmlns:xlink="http://www.w3.org/1999/xlink" width="27" height="34" viewBox="0 0 27 34"><defs><path id="ittla" d="M883 69.19a12.71 12.71 0 0 1-1.1 5.1c-1.21 2.91-3.87 7.4-9.6 12.23a2 2 0 0 1-2.6 0c-5.73-4.83-8.39-9.32-9.6-12.24a12.47 12.47 0 0 1-1.04-6.28 12.1 12.1 0 0 1 11.51-11c3.3-.1 6.4 1.1 8.77 3.42A12.19 12.19 0 0 1 883 69.2zm-2.16 0a9.99 9.99 0 0 0-3-7.2 9.67 9.67 0 0 0-7.2-2.8 9.91 9.91 0 0 0-9.28 11.9v.05l.06.25c.15.7.37 1.36.66 2v.02c1.13 2.68 3.58 6.82 8.93 11.36 5.35-4.54 7.8-8.68 8.92-11.36v-.03c.3-.63.52-1.3.67-1.98v-.01l.05-.25v-.05c.13-.63.19-1.27.19-1.9zm-3.45.12c0 1.55-.54 3.05-1.53 4.22-.4.46-1.07.52-1.53.12a1.1 1.1 0 0 1-.12-1.55 4.32 4.32 0 0 0-3.2-7.08 4.27 4.27 0 0 0-4.24 4.3c0 2.36 1.9 4.29 4.23 4.29.6 0 1.08.5 1.08 1.1 0 .6-.48 1.1-1.08 1.1a6.45 6.45 0 0 1-6.39-6.5c0-3.58 2.87-6.5 6.4-6.5a6.45 6.45 0 0 1 6.38 6.5z"/></defs><g><g transform="translate(-857 -55)"><use fill="#d91907" xlink:href="#ittla"/></g></g></svg>