<svg xmlns="http://www.w3.org/2000/svg" xmlns:xlink="http://www.w3.org/1999/xlink" width="19" height="16" viewBox="0 0 19 16"><defs><path id="rxuna" d="M1176 487.63c0 3.66-3.36 6.63-7.5 6.63-1.07 0-2.1-.2-3.06-.57a13.54 13.54 0 0 1-4.2 1.31.25.25 0 0 1-.22-.14.24.24 0 0 1 .05-.28c.58-.56.97-1.76 1.12-3.36a6.06 6.06 0 0 1-1.2-3.59c0-3.66 3.37-6.63 7.5-6.63 4.15 0 7.51 2.97 7.51 6.63zm-10 0a1 1 0 0 0-1-.98 1 1 0 0 0-1 .98 1 1 0 0 0 1 .98 1 1 0 0 0 1-.98zm3.5 0a1 1 0 0 0-1-.98 1 1 0 0 0-1 .98 1 1 0 0 0 1 .98 1 1 0 0 0 1-.98zm3.5 0a1 1 0 0 0-1-.98 1 1 0 0 0-1 .98 1 1 0 0 0 1 .98 1 1 0 0 0 1-.98z"/></defs><g><g transform="translate(-1159 -480)"><use fill="#aeb1bd" xlink:href="#rxuna"/></g></g></svg>