<svg xmlns="http://www.w3.org/2000/svg" xmlns:xlink="http://www.w3.org/1999/xlink" width="14" height="18" viewBox="0 0 14 18"><defs><path id="lp3xa" d="M669.75 3545.22a.86.86 0 0 0-.58-.22.86.86 0 0 0-.59.22l-4.34 3.83h-3.4a.86.86 0 0 0-.6.22.67.67 0 0 0-.24.52v4.42c0 .2.08.37.25.52.16.14.36.22.58.22h3.41l4.34 3.83c.17.15.36.22.59.22.22 0 .42-.07.58-.22a.67.67 0 0 0 .25-.52v-12.52c0-.2-.08-.38-.25-.52z"/></defs><g><g transform="translate(-658 -3543)"><use fill="#2c3552" xlink:href="#lp3xa"/></g></g></svg>