<svg xmlns="http://www.w3.org/2000/svg" xmlns:xlink="http://www.w3.org/1999/xlink" width="26" height="26" viewBox="0 0 26 26"><defs><path id="yn4sa" d="M842.9 1079.63v.01l-1.39 1.39a3.2 3.2 0 0 1-2.04.95c-.15.02-.3.02-.43.02-1.07 0-2.03-.3-2.7-.55a17.73 17.73 0 0 1-5.22-3.14 19.38 19.38 0 0 1-5.04-6.43c-.45-.96-.98-2.23-1.07-3.66a3.33 3.33 0 0 1 1.08-2.8l.03-.03c.25-.2.47-.44.71-.69l.54-.53c.96-.92 2.22-.92 3.15.01l2.23 2.23c.45.44.7.97.7 1.54a2.2 2.2 0 0 1-.7 1.59l-1.38 1.38a.82.82 0 0 1-1.15 0 .82.82 0 0 1 0-1.15l1.38-1.38c.1-.1.22-.27.22-.43 0-.15-.12-.3-.21-.38l-.01-.02-2.23-2.23c-.3-.3-.57-.3-.89.02-.16.15-.32.3-.48.48-.25.26-.52.54-.82.8-.42.38-.59.84-.55 1.48.08 1.16.53 2.24.92 3.06a17.73 17.73 0 0 0 4.61 5.9 16.03 16.03 0 0 0 4.76 2.85c.97.37 1.72.5 2.42.44.41-.03.73-.19 1.03-.48l1.38-1.38c.36-.39.18-.66 0-.83l-.01-.02c-.23-.24-.46-.48-.72-.72l-.39-.39-1.1-1.1c-.11-.12-.28-.25-.44-.25-.16 0-.33.14-.44.25l-.35.35c-.34.33-.67.65-.98 1l-.03.03c-.5.5-1.02.33-1.2.27 0 0-.03 0-.04-.02-.72-.29-1.4-.7-2.2-1.34-.8-.65-1.48-1.3-2.09-2a.81.81 0 0 1 .08-1.15.8.8 0 0 1 1.15.08c.54.62 1.16 1.2 1.88 1.8.55.43 1.02.74 1.49.97.26-.28.53-.55.8-.8.1-.12.22-.23.34-.35a2.24 2.24 0 0 1 1.58-.72c.57 0 1.12.25 1.59.72l1.1 1.1.38.38.76.77c.88.9.89 2.17 0 3.1zm-.98-7.7a.81.81 0 0 1-.94-.66 6.38 6.38 0 0 0-1.79-3.46 6.37 6.37 0 0 0-3.45-1.8.81.81 0 0 1 .27-1.6 8.04 8.04 0 0 1 6.57 6.59.81.81 0 0 1-.66.94zm4.4-.2a.81.81 0 0 1-.94-.66 11.46 11.46 0 0 0-3.22-6.23 11.47 11.47 0 0 0-6.22-3.22.81.81 0 0 1 .28-1.6c2.69.45 5.14 1.73 7.09 3.68a13.1 13.1 0 0 1 3.68 7.1.8.8 0 0 1-.68.93z"/></defs><g><g transform="translate(-823 -1058)"><use fill="#f12e1d" xlink:href="#yn4sa"/></g></g></svg>