<svg xmlns="http://www.w3.org/2000/svg" xmlns:xlink="http://www.w3.org/1999/xlink" width="35" height="33" viewBox="0 0 35 33"><defs><path id="8czma" d="M1285 64.69v2.76a3 3 0 0 1-3.09 3.05c-.25.02-.51.02-.77.02l-.75-.01h-2.95c-1.93 0-3.17-1.23-3.17-3.14V65.53c-.7-.25-1.48-.4-2.47-.52a20.82 20.82 0 0 0-4.5 0 1.12 1.12 0 1 1-.26-2.23c1.59-.19 3.22-.19 5 0h.02a12.91 12.91 0 0 1 3.6.86c.23.12.92.46.92 1.44v.07c-.04.63-.04 1.04-.03 1.57v.66c0 .65.24.88.9.88h2.97c.5 0 .97.02 1.44 0h.04c.35 0 .81-.1.83-.84V64.7c0-.59-.17-1.06-.55-1.5a7.87 7.87 0 0 0-2.86-1.96c-2.21-1.01-4.64-1.6-7.62-1.88-3.61-.32-7.14.1-10.5 1.26-1.2.42-2.74 1.04-3.97 2.11-.69.6-.98 1.22-.95 2.02.06.64.05 1.27.04 1.87l-.01.7c.02.62.28.89.89.89h4.49c.19 0 .45-.03.6-.18.17-.17.2-.44.2-.65v-2.32c0-.62.52-1.13 1.15-1.13.63 0 1.14.51 1.14 1.13v2.32c0 .91-.31 1.7-.9 2.26-.56.55-1.34.84-2.23.82h-4.45a3 3 0 0 1-3.16-3.1v-.02-.75c.01-.58.02-1.13-.03-1.66v-.06a4.65 4.65 0 0 1 1.71-3.83 14.37 14.37 0 0 1 4.73-2.55 27.56 27.56 0 0 1 11.45-1.38c3.26.3 5.92.96 8.37 2.08 1.03.46 2.52 1.23 3.65 2.55a4.35 4.35 0 0 1 1.08 2.95zm-13.41 9.4c0 .63-.51 1.13-1.14 1.13h-1.88c-.63 0-1.14-.5-1.14-1.12 0-.62.51-1.13 1.14-1.13h1.88c.63 0 1.14.5 1.14 1.13zm6.61 0c0 .63-.51 1.13-1.14 1.13h-1.88c-.62 0-1.14-.5-1.14-1.12 0-.62.52-1.13 1.14-1.13h1.88c.63 0 1.14.5 1.14 1.13zm-13.23 0c0 .63-.51 1.13-1.14 1.13h-1.88c-.63 0-1.14-.5-1.14-1.12 0-.62.51-1.13 1.14-1.13h1.88c.63 0 1.14.5 1.14 1.13zm6.62 3.94c0 .62-.51 1.12-1.14 1.12h-1.88c-.63 0-1.14-.5-1.14-1.12 0-.62.51-1.13 1.14-1.13h1.88c.63 0 1.14.5 1.14 1.13zm6.61 0c0 .62-.51 1.12-1.14 1.12h-1.88c-.62 0-1.14-.5-1.14-1.12 0-.62.52-1.13 1.14-1.13h1.88c.63 0 1.14.5 1.14 1.13zm-13.23 0c0 .62-.51 1.12-1.14 1.12h-1.88c-.63 0-1.14-.5-1.14-1.12 0-.62.51-1.13 1.14-1.13h1.88c.63 0 1.14.5 1.14 1.13zm6.62 3.92c0 .62-.51 1.13-1.14 1.13h-1.88c-.63 0-1.14-.51-1.14-1.13 0-.62.51-1.13 1.14-1.13h1.88c.63 0 1.14.51 1.14 1.13zm6.61 0c0 .62-.51 1.13-1.14 1.13h-1.88c-.62 0-1.14-.51-1.14-1.13 0-.62.52-1.13 1.14-1.13h1.88c.63 0 1.14.51 1.14 1.13zm-13.23 0c0 .62-.51 1.13-1.14 1.13h-1.88c-.63 0-1.14-.51-1.14-1.13 0-.62.51-1.13 1.14-1.13h1.88c.63 0 1.14.51 1.14 1.13zm6.62 3.92c0 .62-.51 1.13-1.14 1.13h-1.88c-.63 0-1.14-.5-1.14-1.13 0-.62.51-1.12 1.14-1.12h1.88c.63 0 1.14.5 1.14 1.12z"/></defs><g><g transform="translate(-1252 -55)"><use fill="#d91907" xlink:href="#8czma"/></g></g></svg>