<svg xmlns="http://www.w3.org/2000/svg" xmlns:xlink="http://www.w3.org/1999/xlink" width="66" height="49" viewBox="0 0 66 49"><defs><path id="9ue3a" d="M1512.64 2098.68l-7.06 7.1a2.9 2.9 0 0 1-3.72.33l-3.98 3.66a3.99 3.99 0 0 1-3.42 5.77 4.1 4.1 0 0 1-3.81 4.1 3.75 3.75 0 0 1-3.56 3.82 3.68 3.68 0 0 1-6.27 2.46l-1.48-1.5a4.16 4.16 0 0 1-6.08-3.68 4.16 4.16 0 0 1-4.13-4.16h-.01a4.16 4.16 0 0 1-3.66-6.12l-3.98-4a2.9 2.9 0 0 1-3.06-.68l-7.07-7.1a1.22 1.22 0 0 1 0-1.73l11.62-11.7a1.2 1.2 0 0 1 1.71 0c.48.48.48 1.26 0 1.73l-10.76 10.83 6.21 6.25a.48.48 0 0 0 .68.01l11.93-12 .34-.35a.49.49 0 0 0 0-.7l-4.05-4.07a1.22 1.22 0 0 1 0-1.73 1.2 1.2 0 0 1 1.71 0l4.05 4.08a2.92 2.92 0 0 1 .75 2.85l1.78 1.8h9.85l1.41-1.43a2.95 2.95 0 0 1 .62-3.21l4.17-4.2a1.2 1.2 0 0 1 1.71 0c.47.48.47 1.25 0 1.73l-4.17 4.19a.5.5 0 0 0 0 .7l12.27 12.33c.19.2.5.2.69 0l6.2-6.25-10.62-10.68a1.22 1.22 0 0 1 0-1.73 1.2 1.2 0 0 1 1.72 0l11.47 11.55c.48.48.48 1.25 0 1.73zm-41.8 13.73c0-.95-.78-1.73-1.72-1.73a1.73 1.73 0 0 0 0 3.46c.94 0 1.72-.77 1.72-1.73zm4.15 4.17c0-.95-.77-1.73-1.72-1.73a1.72 1.72 0 1 0 1.14 3.02l.14-.14c.27-.3.44-.71.44-1.15zm4.13 4.17c0-.95-.77-1.73-1.72-1.73a1.7 1.7 0 0 0-1.28.58 1.73 1.73 0 0 0 1.28 2.88c.46 0 .89-.19 1.2-.5l.01-.01.02-.02c.3-.3.49-.73.49-1.2zm16.76-9.2c0-.4-.16-.8-.45-1.09l-7.85-7.8-4.44-.04-4.06 4.08a3.83 3.83 0 0 1-5.47 0 3.88 3.88 0 0 1 0-5.5l4.78-4.82h-1.57a1.2 1.2 0 0 1-.86-.36l-1.86-1.87-10.71 10.77 3.78 3.81a4.16 4.16 0 0 1 6.08 3.68h.02a4.16 4.16 0 0 1 4.14 4.17 4.16 4.16 0 0 1 3.64 6.12l1.49 1.5a1.24 1.24 0 0 0 1.77 0 1.26 1.26 0 0 0 0-1.79l-1.27-1.28a1.22 1.22 0 0 1 0-1.72 1.2 1.2 0 0 1 1.7 0l1.23 1.23a1.32 1.32 0 0 0 2.26-.96c0-.36-.15-.7-.42-.95l-2.63-2.51a1.22 1.22 0 0 1-.05-1.72 1.2 1.2 0 0 1 1.71-.05l2.42 2.3a1.62 1.62 0 0 0 2.34-.07c.6-.66.58-1.66-.04-2.3h-.01l-2.52-2.53a1.22 1.22 0 0 1 0-1.73 1.2 1.2 0 0 1 1.72 0l2.51 2.54a1.52 1.52 0 0 0 2.17 0c.3-.3.45-.69.45-1.1zm4.23-7.13l-9.96-10.02-1.62 1.62a1.2 1.2 0 0 1-.85.36h-5.87l-6.5 6.54a1.45 1.45 0 0 0 0 2.06 1.43 1.43 0 0 0 2.06 0l4.41-4.45c.23-.23.55-.36.87-.35l5.27.05c.36-.04.73.08 1 .35l7.39 7.34zm3.97-7.26c.67 0 1.2.54 1.2 1.22 0 .67-.53 1.21-1.2 1.21a1.21 1.21 0 1 1 0-2.43zm-44.29.12c.67 0 1.21.55 1.21 1.22 0 .67-.54 1.21-1.2 1.21a1.21 1.21 0 1 1 0-2.43zm7.08-15.18c.67 0 1.2.54 1.2 1.21 0 .68-.53 1.22-1.2 1.22-.67 0-1.21-.54-1.21-1.22 0-.67.54-1.21 1.2-1.21zm30.24-.1c.66 0 1.2.54 1.2 1.22 0 .67-.54 1.21-1.2 1.21a1.21 1.21 0 1 1 0-2.43z"/></defs><g><g transform="translate(-1449 -2080)"><use fill="#f12e1d" xlink:href="#9ue3a"/></g></g></svg>