<svg xmlns="http://www.w3.org/2000/svg" xmlns:xlink="http://www.w3.org/1999/xlink" width="57" height="47" viewBox="0 0 57 47"><defs><path id="srvga" d="M455.1 2091.15l-11.18 11.47v23.28c0 .6-.48 1.1-1.07 1.1h-39.77c-.6 0-1.08-.5-1.08-1.1v-40.8c0-.6.48-1.1 1.08-1.1h39.77c.59 0 1.07.5 1.07 1.1v6.19l5.66-5.8a3 3 0 0 1 4.32 0l1.2 1.23a3.16 3.16 0 0 1 0 4.44zm-13.33 13.68l-14.17 14.53c-.12.13-.26.22-.42.27l-6 2.05a1.05 1.05 0 0 1-1.1-.26c-.3-.3-.4-.74-.27-1.13l2-6.16c.06-.16.15-.31.27-.43l19.69-20.2v-7.3h-37.62v38.6h37.62zm7.33-10.64l-2.48-2.55-22.84 23.43-1.24 3.82 3.72-1.27zm4.75-5.26c0-.24-.1-.48-.27-.65l-1.2-1.24a.89.89 0 0 0-1.28 0l-2.96 3.04 1.24 1.28 1.24 1.27 2.96-3.04c.17-.17.27-.4.27-.66zm-17.22 3.07c0 .6-.48 1.1-1.08 1.1h-1.02c-.6 0-1.08-.5-1.08-1.1 0-.6.48-1.1 1.08-1.1h1.02c.6 0 1.08.5 1.08 1.1zm-5.7 0c0 .6-.48 1.1-1.08 1.1h-19.6c-.59 0-1.07-.5-1.07-1.1 0-.6.48-1.1 1.07-1.1h19.6c.6 0 1.08.5 1.08 1.1zm-1.03 6.43c0 .6-.48 1.1-1.07 1.1h-18.58c-.59 0-1.07-.5-1.07-1.1 0-.61.48-1.1 1.07-1.1h18.58c.6 0 1.07.49 1.07 1.1zm-6.72 6.43c0 .6-.48 1.1-1.07 1.1h-11.86c-.59 0-1.07-.5-1.07-1.1 0-.61.48-1.1 1.07-1.1h11.86c.59 0 1.07.49 1.07 1.1zm-5.13 6.3c0 .62-.48 1.11-1.07 1.11h-6.73c-.59 0-1.07-.5-1.07-1.1 0-.61.48-1.1 1.07-1.1h6.73c.6 0 1.07.49 1.07 1.1z"/></defs><g><g transform="translate(-401 -2082)"><use fill="#f12e1d" xlink:href="#srvga"/></g></g></svg>