<svg xmlns="http://www.w3.org/2000/svg" xmlns:xlink="http://www.w3.org/1999/xlink" width="58" height="58" viewBox="0 0 58 58"><defs><path id="4ugma" d="M1236.14 2090.9v6.35c0 .58-.47 1.06-1.05 1.06H1233c-.27.9-.64 1.79-1.09 2.63l1.47 1.46c.41.42.41 1.08 0 1.5l-4.5 4.5a1.05 1.05 0 0 1-1.49 0l-1.46-1.48c-.84.45-1.72.82-2.63 1.1v2.07c0 .58-.48 1.05-1.06 1.05h-6.36c-.58 0-1.05-.47-1.05-1.05v-2.08c-.91-.27-1.8-.64-2.63-1.09l-1.47 1.47a1.05 1.05 0 0 1-1.5 0l-4.49-4.5a1.05 1.05 0 0 1 0-1.49l1.47-1.46c-.45-.84-.81-1.72-1.09-2.63h-2.08c-.58 0-1.05-.48-1.05-1.06v-6.36c0-.58.47-1.05 1.05-1.05h2.08c.28-.91.64-1.8 1.09-2.63l-1.47-1.47a1.05 1.05 0 0 1 0-1.5l4.5-4.49a1.06 1.06 0 0 1 1.49 0l1.47 1.47c.84-.45 1.72-.81 2.63-1.09v-2.08c0-.58.47-1.05 1.05-1.05h6.36c.58 0 1.06.47 1.06 1.05v2.08c.9.28 1.79.64 2.63 1.09l1.46-1.47a1.06 1.06 0 0 1 1.5 0l4.5 4.5c.4.41.4 1.08 0 1.49l-1.48 1.47c.45.84.82 1.72 1.1 2.63h2.07c.58 0 1.05.47 1.05 1.05zm-2.1 5.3v-4.25h-1.83c-.49 0-.91-.34-1.03-.81-.3-1.26-.8-2.45-1.47-3.56-.26-.41-.2-.95.15-1.3l1.3-1.29-3.01-3-1.3 1.3c-.34.34-.87.4-1.29.15-1.1-.68-2.3-1.18-3.56-1.48-.47-.11-.8-.54-.8-1.02v-1.83h-4.25v1.83c0 .48-.34.9-.81 1.02-1.26.3-2.46.8-3.56 1.48-.41.25-.95.19-1.3-.16l-1.29-1.3-3 3.01 1.3 1.3c.34.34.4.88.14 1.3-.67 1.1-1.17 2.3-1.47 3.55-.11.47-.54.8-1.02.8h-1.83v4.26h1.83c.48 0 .9.33 1.02.8.3 1.26.8 2.46 1.47 3.56.26.42.2.95-.15 1.3l-1.3 1.29 3.01 3 1.3-1.29c.34-.34.88-.4 1.3-.15 1.1.67 2.3 1.17 3.55 1.47.47.12.8.54.8 1.03v1.83h4.26v-1.83c0-.49.33-.91.8-1.03 1.26-.3 2.46-.8 3.56-1.47.42-.25.95-.2 1.3.15l1.29 1.3 3-3.01-1.29-1.3c-.34-.34-.4-.87-.15-1.29.67-1.1 1.17-2.3 1.47-3.56.12-.47.54-.8 1.03-.8zm-13.35-10.24c0 .58-.48 1.05-1.06 1.05h-.05a1.05 1.05 0 1 1 0-2.1h.05c.58 0 1.06.47 1.06 1.05zm-4.33 1.82a7.3 7.3 0 0 0-1.44 12.14 1.05 1.05 0 1 1-1.36 1.62 9.41 9.41 0 0 1 1.86-15.64 1.05 1.05 0 1 1 .94 1.88zm8.41 6.55a5.15 5.15 0 1 1-10.3-.01 5.15 5.15 0 0 1 10.3.01zm-2.1 0a3.03 3.03 0 1 0-6.08 0 3.03 3.03 0 0 0 6.07 0zm33.3 23.38l-1.13 4.89c-.13.57-.7.92-1.27.79l-1.43-.33c-.34.56-.72 1.1-1.14 1.6l.78 1.24c.3.5.15 1.15-.34 1.46l-4.26 2.65a1.05 1.05 0 0 1-1.45-.33l-.78-1.25c-.64.16-1.28.26-1.93.32l-.34 1.43a1.06 1.06 0 0 1-1.26.8l-4.9-1.14c-.56-.13-.91-.7-.78-1.27l.33-1.43c-.56-.34-1.1-.72-1.6-1.14l-1.24.78a1.05 1.05 0 0 1-1.46-.34l-2.65-4.25c-.31-.5-.16-1.15.33-1.46l1.25-.78c-.16-.63-.27-1.28-.32-1.93l-1.43-.33a1.05 1.05 0 0 1-.8-1.27l1.14-4.89a1.05 1.05 0 0 1 1.26-.79l1.44.33c.33-.56.72-1.1 1.14-1.6l-.78-1.24a1.05 1.05 0 0 1 .34-1.45l4.25-2.66a1.05 1.05 0 0 1 1.46.34l.78 1.25c.63-.17 1.28-.27 1.93-.33l.33-1.43a1.05 1.05 0 0 1 1.27-.8l4.89 1.14a1.06 1.06 0 0 1 .79 1.27l-.34 1.43c.57.34 1.1.72 1.6 1.14l1.25-.78c.5-.3 1.14-.16 1.45.34l2.66 4.26c.3.49.16 1.14-.34 1.45l-1.25.78c.16.63.27 1.28.32 1.93l1.44.34a1.05 1.05 0 0 1 .79 1.26zm-2.3.55l-1.18-.27a1.05 1.05 0 0 1-.82-1.02c0-1-.17-1.98-.49-2.93-.15-.46.03-.97.45-1.23l1.03-.64-1.54-2.47-1.03.64c-.42.26-.95.2-1.3-.14a9.55 9.55 0 0 0-2.42-1.72c-.43-.22-.66-.71-.55-1.19l.27-1.18-2.83-.66-.27 1.19c-.11.47-.54.81-1.02.82-1 0-1.98.17-2.93.48-.46.16-.97-.03-1.23-.44l-.64-1.03-2.47 1.54.64 1.03c.26.41.2.95-.14 1.3a9.53 9.53 0 0 0-1.73 2.41c-.21.44-.7.67-1.18.56l-1.18-.28-.66 2.84 1.19.27c.47.11.8.53.81 1.02.01 1 .18 1.98.5 2.93.15.46-.04.97-.45 1.23l-1.03.64 1.53 2.47 1.04-.64c.41-.26.95-.2 1.3.14.7.7 1.52 1.28 2.41 1.72.44.22.67.71.56 1.19l-.28 1.18 2.84.66.27-1.19c.11-.47.53-.81 1.02-.81 1-.01 1.98-.18 2.93-.5.46-.15.97.04 1.23.45l.64 1.03 2.47-1.54-.65-1.03c-.25-.41-.2-.95.15-1.3a9.54 9.54 0 0 0 1.72-2.41c.22-.44.7-.67 1.18-.56l1.2.28zm-8.7-7.08a1.05 1.05 0 0 1-1.28.77 1.05 1.05 0 1 1 .5-2.05c.56.14.91.71.77 1.28zm-3.82.78a5.52 5.52 0 0 0-3.14 8.73 1.05 1.05 0 0 1-1.7 1.27 7.65 7.65 0 0 1 4.35-12.05 1.05 1.05 0 0 1 .5 2.05zm5.47 6.37a4.26 4.26 0 0 1-5.14 3.2 4.25 4.25 0 0 1-3.2-5.13 4.26 4.26 0 0 1 5.13-3.2 4.28 4.28 0 0 1 3.2 5.13zm-3.68-3.08a2.16 2.16 0 0 0-2.33 3.26 2.15 2.15 0 0 0 1.84 1.02 2.17 2.17 0 0 0 .49-4.28zm-21.28.18c-1.14.21-2.38.3-3.62.3-3.28 0-6.62-.68-8.4-1.85a1.05 1.05 0 0 1 1.16-1.77c2 1.32 6.9 1.9 10.48 1.25a1.05 1.05 0 1 1 .38 2.07zm3.52-1.2l-.27.16a1.05 1.05 0 0 1-1.42-.45 1.05 1.05 0 0 1 .44-1.42l.2-.1a1.05 1.05 0 1 1 1.05 1.82zm24.16-12.94a1.06 1.06 0 0 1-1.37.58c-2.72-1.11-6.18-1.14-7.7-.48a1.05 1.05 0 1 1-.85-1.93c2.23-.97 6.33-.77 9.35.46.53.22.8.83.57 1.37zm2.47 1.72a1.05 1.05 0 0 1-1.49.13l-.09-.07a1.05 1.05 0 0 1 1.28-1.67l.16.12c.45.37.51 1.04.14 1.49z"/></defs><g><g transform="translate(-1200 -2075)"><use fill="#f12e1d" xlink:href="#4ugma"/></g></g></svg>