<svg xmlns="http://www.w3.org/2000/svg" xmlns:xlink="http://www.w3.org/1999/xlink" width="48" height="58" viewBox="0 0 48 58"><defs><path id="7dnia" d="M961.1 2116.8v.1c0 .6-.5 1.08-1.1 1.08-.6 0-1.1-.49-1.1-1.09v-.09c0-.6.5-1.1 1.1-1.1.6 0 1.1.5 1.1 1.1zm14.73-20.64a15.69 15.69 0 0 1-7.57 13.44 6 6 0 0 0-1.27 1v13.76c0 2.73-1.42 4.64-3.45 4.64h-7.08c-2.03 0-3.45-1.9-3.45-4.64v-13.76a6.02 6.02 0 0 0-1.27-1 15.7 15.7 0 0 1-7.57-13.44 15.8 15.8 0 0 1 15.83-15.75 15.8 15.8 0 0 1 15.83 15.75zm-11.04 27h-9.58v1.2c0 1.42.53 2.45 1.25 2.45h7.08c.72 0 1.25-1.03 1.25-2.45zm0-21.48c-.51-.37-1.26-.27-1.7-.15-1.2.3-1.94 1.05-2 1.3v11.02a1.1 1.1 0 0 1-2.2 0l.01-11.02c-.04-.24-.79-1-1.99-1.3-.44-.12-1.19-.22-1.7.15v19.3h9.58zm-6.98-2.17a6.2 6.2 0 0 1 2.19 1.22 6.2 6.2 0 0 1 3.67-1.5l-3.67-7.35-3.67 7.36c.47.02.97.1 1.48.27zm15.82-3.35c0-7.48-6.12-13.56-13.63-13.56a13.61 13.61 0 0 0-13.63 13.56c0 4.76 2.44 9.09 6.52 11.57l.12.08v-6.58-.02a1.05 1.05 0 0 1 .03-.21v-.03l.09-.23 5.89-11.8a1.1 1.1 0 0 1 1.96 0l5.9 11.8.04.12v.01l.03.1.01.03a1.16 1.16 0 0 1 .02.2v6.61l.13-.08a13.47 13.47 0 0 0 6.52-11.57zm-1.31 0c0 1.24-.19 2.47-.56 3.64a1.1 1.1 0 0 1-2.1-.65 10.03 10.03 0 0 0-2.53-10.14 1.1 1.1 0 0 1-.01-1.55 1.1 1.1 0 0 1 1.55 0 12.14 12.14 0 0 1 3.65 8.7zm-6.18-9.4a1.1 1.1 0 0 1-1.48.46l-.06-.03a1.1 1.1 0 0 1-.47-1.48 1.1 1.1 0 0 1 1.48-.46l.06.03c.54.28.75.94.47 1.47zm-14.68-5.6a1.1 1.1 0 0 1-1.5-.4l-1.86-3.2a1.1 1.1 0 0 1 .4-1.5 1.1 1.1 0 0 1 1.5.4l1.86 3.2c.3.53.12 1.2-.4 1.5zm-6.34 6.18a1.1 1.1 0 0 1-1.5.4l-3.14-1.8c-.52-.3-.7-.97-.4-1.5.3-.52.98-.7 1.5-.4l3.14 1.8c.52.3.7.97.4 1.5zm26.78-9.78l-1.86 3.2a1.1 1.1 0 0 1-1.9-1.1l1.86-3.2c.3-.52.97-.7 1.5-.4.53.3.7.98.4 1.5zm-29.22 18.33c0 .6-.5 1.1-1.1 1.1h-3.48a1.1 1.1 0 1 1 0-2.2h3.48c.6 0 1.1.5 1.1 1.1zm18.42-21.8v3.74c0 .6-.5 1.1-1.1 1.1-.6 0-1.1-.5-1.1-1.1v-3.74c0-.6.5-1.09 1.1-1.09.6 0 1.1.49 1.1 1.1zm18.42 11.85l-3.14 1.8a1.1 1.1 0 0 1-1.5-.4 1.1 1.1 0 0 1 .4-1.5l3.14-1.8a1.1 1.1 0 0 1 1.5.4c.3.53.12 1.2-.4 1.5zm3.48 9.95c0 .6-.5 1.1-1.1 1.1h-3.48a1.1 1.1 0 1 1 0-2.19h3.48c.6 0 1.1.48 1.1 1.09zm-3.08 11.44a1.1 1.1 0 0 1-1.5.4l-2.9-1.66a1.1 1.1 0 0 1-.4-1.5c.3-.52.98-.7 1.5-.4l2.9 1.67c.52.3.7.97.4 1.5zm-28.3 5.2l-1.62 2.78a1.1 1.1 0 0 1-1.9-1.1l1.61-2.78c.3-.52.98-.7 1.5-.4.53.3.71.97.4 1.5zm-7.14-6.46l-2.9 1.66a1.1 1.1 0 0 1-1.5-.4 1.1 1.1 0 0 1 .4-1.5l2.9-1.65a1.1 1.1 0 0 1 1.5.4c.3.52.12 1.19-.4 1.49zm27.02 9.64a1.1 1.1 0 0 1-1.5-.4l-1.62-2.79a1.1 1.1 0 0 1 .4-1.49 1.1 1.1 0 0 1 1.5.4l1.62 2.79c.3.52.13 1.19-.4 1.49z"/></defs><g><g transform="translate(-936 -2072)"><use fill="#f12e1d" xlink:href="#7dnia"/></g></g></svg>