<svg xmlns="http://www.w3.org/2000/svg" xmlns:xlink="http://www.w3.org/1999/xlink" width="17" height="25" viewBox="0 0 17 25"><defs><path id="wo1ra" d="M477.15 1071a.75.75 0 0 0-1.07-.05.79.79 0 0 0-.05 1.1 5.67 5.67 0 0 1 1.45 3.79v3.32c0 .16-.13.29-.28.29h-10.4a.28.28 0 0 1-.29-.29v-3.32c0-3.1 2.46-5.6 5.48-5.6 2.77 0 5.02-2.3 5.02-5.12A5.07 5.07 0 0 0 472 1060a5.07 5.07 0 0 0-5.02 5.12c0 .84.21 1.68.6 2.42.2.38.66.52 1.03.32s.5-.67.3-1.05a3.65 3.65 0 0 1-.4-1.69 3.54 3.54 0 0 1 3.49-3.57c1.93 0 3.5 1.6 3.5 3.57a3.54 3.54 0 0 1-3.5 3.57c-3.86 0-7 3.2-7 7.15v3.33c0 1 .8 1.83 1.8 1.83h10.4c1 0 1.8-.82 1.8-1.83v-3.33c0-1.8-.66-3.52-1.85-4.84z"/></defs><g><g transform="translate(-464 -1058)"><use fill="#f12e1d" xlink:href="#wo1ra"/></g></g></svg>